<svg xmlns="http://www.w3.org/2000/svg" xmlns:xlink="http://www.w3.org/1999/xlink" viewBox="0 0 748.39 1529"><defs><clipPath id="clip-path" transform="translate(-148.26 -182.93)"><path d="M555.73,1056.56s69.93.45,89.58,5.47,71.66,122.73,93.18,134,39.8-7.43,63.54-21.28S847.47,1144,848.15,1137s-9.39-35.06-18.1-40.72-34-6.06-47.49,2.57c-19.82-54-48-132.74-73.84-143.59s-104.15-16-104.15-16Z" fill="#e1ecff"/></clipPath></defs><g style="isolation:isolate"><g id="Layer_3" data-name="Layer 3"><path d="M289.08,804.57s-34,13.45-39,46.12,72.26,128.37,72.26,128.37L560.6,850.69,485.27,718.48Z" transform="translate(-148.26 -182.93)" fill="#c7dcf9"/><path d="M341.76,835.46S316.69,861.2,309,889.64,300.33,969,301.61,988c37.38,34.59,185.22,5.64,185.22,5.64L629.29,826.09s-24.15-45.84-36.41-58.41-52-28.19-97.85-9.74C468.12,796.12,341.76,835.46,341.76,835.46Z" transform="translate(-148.26 -182.93)" fill="#e1ecff"/><path d="M330.57,848.77s55.31,17.75,117.57-6.31,73.54-91.8,73.54-91.8L495,757.94,341.76,835.46Z" transform="translate(-148.26 -182.93)" fill="#e1ecff" style="mix-blend-mode:multiply"/><path d="M555.73,1056.56s69.93.45,89.58,5.47,71.66,122.73,93.18,134,39.8-7.43,63.54-21.28S847.47,1144,848.15,1137s-9.39-35.06-18.1-40.72-34-6.06-47.49,2.57c-19.82-54-48-132.74-73.84-143.59s-104.15-16-104.15-16Z" transform="translate(-148.26 -182.93)" fill="#e1ecff"/><g clip-path="url(#clip-path)"><path d="M629.29,1005s56.94,6.22,72.67,27.41,46.9,150.86,81.79,153.93c.56,42-71.7,57.16-71.7,57.16L538.84,1051.06Z" transform="translate(-148.26 -182.93)" fill="#e1ecff" opacity="0.51" style="mix-blend-mode:multiply"/></g><path d="M367.85,1045.94s43,90.19,82,114.79,109.67,22.61,129.14,38.72,15.37,93.49,34.85,114,46.89,33,72.51,30.75,46.12-14.61,46.38-26.14-.77-21.52-12.81-27.67-29-11.27-29.73-18.45-14.35-116.33-20-146-49.53-70.94-106.08-91.73c-53.55-44.84-135.8-25.62-135.8-25.62Z" transform="translate(-148.26 -182.93)" fill="#e1ecff"/><path d="M380.36,1070.07s49.35,2.52,93.67-17c-8.47-45.09-34.6-58.42-34.6-58.42l-71.58,51.25Z" transform="translate(-148.26 -182.93)" fill="#e1ecff" style="mix-blend-mode:multiply"/><path d="M448.65,599.08C410,578.38,329,571.4,279,633.41s-25.11,126.32-4.1,156.3c22,31.42,97.62,79.43,178.33,34.34S542.43,649.3,448.65,599.08Z" transform="translate(-148.26 -182.93)" fill="#e1ecff"/><path d="M442,637c34.33,8.2,56.63,56.37,45.1,102.49s-51.25,77.12-95.83,77.38-88.9-30.23-88.66-87.12C302.84,675.06,367.45,619.2,442,637Z" transform="translate(-148.26 -182.93)" fill="#1c3177"/><path d="M343.09,997.26c44.73-20.76,11.27-68.16,55.86-78.94,58.79,8.31,75.08,5.4,75.08,5.4S361.53,1022.45,343.09,997.26Z" transform="translate(-148.26 -182.93)" fill="#e1ecff" style="mix-blend-mode:multiply"/><polygon points="232.1 687.54 306.54 879.09 411.85 876.58 508.19 815.6 536.89 728.48 467.19 519.4 433.37 617.28 345.74 686.98 232.1 687.54" fill="#ff97c9"/><path d="M343.09,997.26c24.68-2,37.25-18.07,44.73-25.2,3.81-3.65,3.05-6.83,1.13-17.34s4.74-21.27,13.84-25.88c5,13.45,11.14,16,15.88,15.38s9.61-29,25.11-28.7,27.93,20.75,30,31-7.94,39.46-20.5,60-30.23,45.86-70.15,53.81-62.57-12.43-75.64-38.18c-4.41-8.69-6-20.7-5.86-34.08C301.61,988,310.54,999.82,343.09,997.26Z" transform="translate(-148.26 -182.93)" fill="#e1ecff"/><path d="M639.46,774.34s4.75,15.46,1.55,21.48-7.56,11-10.76,18.7,1.54,36.77,15.63,41.77,25.75-8.07,29.47-15.63,1.66-27.42-3.85-41.25S655.63,773.27,639.46,774.34Z" transform="translate(-148.26 -182.93)" fill="#e1ecff"/><path d="M655.66,582.38l3.16,6.41a2.67,2.67,0,0,0,2,1.46l7.07,1a2.67,2.67,0,0,1,1.48,4.56l-5.11,5a2.68,2.68,0,0,0-.77,2.37l1.2,7a2.67,2.67,0,0,1-3.87,2.82l-6.33-3.33a2.65,2.65,0,0,0-2.48,0l-6.33,3.33a2.68,2.68,0,0,1-3.88-2.82l1.21-7a2.68,2.68,0,0,0-.77-2.37l-5.11-5a2.67,2.67,0,0,1,1.48-4.56l7.07-1a2.67,2.67,0,0,0,2-1.46l3.16-6.41A2.68,2.68,0,0,1,655.66,582.38Z" transform="translate(-148.26 -182.93)" fill="#fec272"/><path d="M317.34,1259.67,320,1265a2.24,2.24,0,0,0,1.68,1.23l5.93.86a2.24,2.24,0,0,1,1.24,3.82l-4.29,4.18a2.21,2.21,0,0,0-.64,2l1,5.9a2.24,2.24,0,0,1-3.25,2.36l-5.3-2.78a2.19,2.19,0,0,0-2.08,0l-5.3,2.78a2.24,2.24,0,0,1-3.25-2.36l1-5.9a2.24,2.24,0,0,0-.65-2l-4.28-4.18a2.24,2.24,0,0,1,1.24-3.82l5.92-.86a2.27,2.27,0,0,0,1.69-1.23l2.65-5.37A2.25,2.25,0,0,1,317.34,1259.67Z" transform="translate(-148.26 -182.93)" fill="#fec272"/><ellipse cx="408.56" cy="678.74" rx="45.63" ry="16.14" transform="translate(-284.78 -79.09) rotate(-12.43)" fill="#fff" opacity="0.48" style="mix-blend-mode:soft-light"/><path d="M468.08,975.23s-28.31-25.29-33.44-25.29-18.79,20-15.71,25.29,18.9,22.66,36.27,28C460.83,992.5,468.08,975.23,468.08,975.23Z" transform="translate(-148.26 -182.93)" fill="#e1ecff" style="mix-blend-mode:multiply"/><polygon points="345.74 686.98 411.85 876.58 508.19 815.6 433.37 617.28 345.74 686.98" fill="#ff97c9" opacity="0.5" style="mix-blend-mode:multiply"/><path d="M675.87,1162.16a122.91,122.91,0,0,1-33,19.58c-11.21,4.31-15,13.15-11.61,29.38s5.29,41.51,12.29,48.17,31.08,3.12,43.56-12.36C683.2,1216.43,675.87,1162.16,675.87,1162.16Z" transform="translate(-148.26 -182.93)" fill="#e1ecff" style="mix-blend-mode:multiply"/><path d="M741.12,996.8s-14,6.09-12.67,15.83,15.63,56.75,21.27,61,22.33-3.28,22.33-3.28C754.91,1021.79,741.12,996.8,741.12,996.8Z" transform="translate(-148.26 -182.93)" fill="#e1ecff" style="mix-blend-mode:multiply"/><path d="M150.32,1109.34c-11.13-23.09,25.14-47.78,56-46s43.83,30.27,54.76,40.89c22.83,22.19,22.11,43.88,6.3,53.22S165.05,1139.87,150.32,1109.34Z" transform="translate(-148.26 -182.93)" fill="#99adf9"/><path d="M772.88,751.79c-9-7.88.26-44.93,21.52-53.6s47.66.81,53.3,15.67S791.33,767.93,772.88,751.79Z" transform="translate(-148.26 -182.93)" fill="#99adf9"/><path d="M877.06,771.6c-4.61,6.58-7.68,25.28,2.05,28.62s17.09-15.92,13.67-25.94S880.14,767.22,877.06,771.6Z" transform="translate(-148.26 -182.93)" fill="#99adf9"/><path d="M884.06,619.78c-7.26,3.41-19.23,18.12-12.43,25.85s22.73-5.33,24.74-15.72S888.91,617.5,884.06,619.78Z" transform="translate(-148.26 -182.93)" fill="#99adf9" opacity="0.44"/><path d="M201.38,1206.45c-6.28-5-24.75-9.26-28.69.25s14.82,18,25,15.27S205.56,1209.79,201.38,1206.45Z" transform="translate(-148.26 -182.93)" fill="#99adf9" opacity="0.44"/><path d="M255.61,1097.9c-11.17,2.1-9.37,12.1-5.79,21.15s16.14,11.66,25.07,3.35C269.12,1108.63,255.61,1097.9,255.61,1097.9Z" transform="translate(-148.26 -182.93)" fill="#99adf9" opacity="0.64" style="mix-blend-mode:multiply"/><path d="M191.4,1082.84c-8,.88-14.52,12.46-8.88,21.86s16.39,16.23,22.54,13.67,7.18-16.4,2.74-25.29S199.09,1082,191.4,1082.84Z" transform="translate(-148.26 -182.93)" fill="#99adf9" opacity="0.64" style="mix-blend-mode:multiply"/><path d="M822.74,706.18c-4.39,1.39-8.84,6.15-8.45,11.27s4.87,9.61,9.73,9,9-8.45,8-14.09S826.09,705.12,822.74,706.18Z" transform="translate(-148.26 -182.93)" fill="#99adf9" opacity="0.64" style="mix-blend-mode:multiply"/><path d="M776.25,716.18s6,6,5,12.8-11.34,6.18-11.34,6.18S771.45,723.55,776.25,716.18Z" transform="translate(-148.26 -182.93)" fill="#99adf9" opacity="0.64" style="mix-blend-mode:multiply"/><path d="M655.46,343.25c-20.09-21.36-2.73-130.2,48-145.32,128.65-38.34,137.4,4.54,118.91,42.49C798,290.41,696.62,387,655.46,343.25Z" transform="translate(-148.26 -182.93)" fill="#99adf9"/><path d="M766.71,219.59c-9.81,3.77-19.72,16.67-18.87,30.57s10.87,26.06,21.73,24.32,20-22.93,17.72-38.22S774.18,216.72,766.71,219.59Z" transform="translate(-148.26 -182.93)" fill="#99adf9" opacity="0.64" style="mix-blend-mode:multiply"/><path d="M663,246.7s13.4,16.31,11.12,34.73-25.32,16.75-25.32,16.75S652.27,266.7,663,246.7Z" transform="translate(-148.26 -182.93)" fill="#99adf9" opacity="0.64" style="mix-blend-mode:multiply"/><path d="M341.74,1573c-39,31.5-65,121.13,17.32,137.09s144.39-76.27,115.51-124.28S367.73,1552,341.74,1573Z" transform="translate(-148.26 -182.93)" fill="#99adf9" opacity="0.44"/><path d="M305.19,1643.29c7.31-22,22.92-59.91,37.9-58,32,4.09,12.41,66.58-7.79,95S300.32,1658,305.19,1643.29Z" transform="translate(-148.26 -182.93)" fill="#99adf9"/></g></g></svg>