<svg xmlns="http://www.w3.org/2000/svg" xmlns:xlink="http://www.w3.org/1999/xlink"
    viewBox="0 0 902 1248.98">
    <defs>
        <clipPath id="clip-path" transform="translate(0 -316.15)">
            <path
                d="M561,427.15l6.18-8.39,35.35,37.83c3.37,3.57,6,6,6,6l41.9,33.59c12,10.46,9.29,15.58,9.29,15.58l-5.18,1.1-29.7-15.31c-13.62-8.94-34.88-35-34.88-35C580.62,455.2,562.3,429,561,427.15Z"
                fill="#ede4ec" />
        </clipPath>
        <clipPath id="clip-path-2" transform="translate(0 -316.15)">
            <path
                d="M697.25,547a11.84,11.84,0,0,0,.08,9.85l-50.71.08A18,18,0,0,0,648,545.78l-4.87-20.66s-10.57-3.94-4.87-16.27l-.47-17.15s-2.21-7,13.18-7.5l11.43-3.54s.57-1.69,1.16-8.28l17.81-4.07s1.26,11.44,12.26,12.73L706.38,485s5.73,2.63,3.11,13.19Z"
                fill="#ede4ec" />
        </clipPath>
        <clipPath id="clip-path-3" transform="translate(0 -316.15)">
            <path
                d="M717.07,552.13,737.6,537l-30.28-30.63-.5-17.89-.21-3.53,35,37.11,7,8s8.76,8.4-.07,14.08l-27.14,18.07Z"
                fill="none" />
        </clipPath>
    </defs>
    <g style="isolation:isolate">
        <g id="Layer_2" data-name="Layer 2">
            <rect x="1" width="901" height="595.28" fill="#f7ecd8" />
            <rect x="1" width="901" height="595.28" fill="#fff" />
            <path
                d="M902,419.64a41.39,41.39,0,0,0-11.94-1.89c-18-1.5-33,12-51,16.5-9,3-18,3-27,6-12,3-19.5,15-27,18-21,9-42-3-67.5,10.5-24,13.5-40.49,13.5-70.49,13.5-16.5,0-39-3-55.5,3-12,4.5-18,15-31.5,16.5s-27-6-40.5-7.5c-27-1.5-51,0-76.49,7.5-9,3-42,7.5-46.5,15-16.5,24,94.49,48,111,52.49,75,19.5,154.5,42,232.49,52.5,53.31,8.42,110.56,2.4,161.93-20.51Z"
                transform="translate(0 -316.15)" fill="#6a82c6" />
            <path
                d="M506.08,501.75c-27,1.5-43.49,16.5-69,18-57,3-40.5-46.5-57-85.5-21-51-61.5-4.5-94.49-15-25.5-10.5-15-21-40.5-9-12,6-16.5,16.5-33,13.5-36-7.5-21-25.49-42-43.49-24-19.5-21,3-45-1.51-10.5-1.5-13.5-13.5-25.49-13.5-13.5-1.49-27,13.5-43.5,10.5-9-3-15-10.5-24-15-11.76-5.49-22.7-5.23-31.11.11V564.3c19.73,6.26,41.2,8.77,58.11,9.44,66,3,130.49-10.5,195,1.5,66,13.5,124.49,13.5,190.49,7.5,39-4.5,76.49-3,115.49-3,28.5,0,64.5,6,91.5-3C633.58,534.75,548.08,500.25,506.08,501.75Z"
                transform="translate(0 -316.15)" fill="#99adf9" />
            <path
                d="M714,491.15c-42-22-106,8-152,16-44,6-48.42-1.9-60.42-39.9-13.5-31.5-35.58-2.1-57.58-6.1-32-6-14-12-34-32-16-16-28-4-48-10-22-8-26-28-50-28-34-2-20,18-42,28-14,6-34-8-44-14-32-16-36.9-17.4-64.9,6.6-22,20-35.1,49.4-67.1,45.4l-26,22c-16,12-36,20-54,34A119.45,119.45,0,0,0,1,525V679.47c6.53,5.85,15.29,10.53,27,13.68,54,14,116-10,170-10,154,0,304,44,454,70,69.62,12.82,174.46,49.13,250,33.62V592.82c-35.3-27.89-82.44-45.79-120-63.67C756,519.15,736,503.15,714,491.15Z"
                transform="translate(0 -316.15)" fill="#bbd8f9" />
            <path
                d="M902,471.55c-12.26-.5-24.91-.38-38.93.2-34.5,1.5-66,16.5-100.49,19.5-63,6-129,28.5-189,46.5,73.49,16.5,162,6,237,6h82.5c3,0,6,0,8.93,0Z"
                transform="translate(0 -316.15)" fill="#99adf9" />
            <path
                d="M468.59,533.25c-10.5-4.5-22.5-1.5-31.5-4.5-15-4.5-15-12-25.5-22.5-19.5-21-37.5-12-63-21-21-7.5-24-28.5-45-34.5-27-7.5-46.5-1.5-72-12-15-7.5-36-21-52.5-24-22.49-3-48,9-72,6-22.5-4.5-30-15-54-3C33.37,426.39,20.73,433,1,435.07V540.28c22.13,6.08,54.28,5.2,74.61,6.47,61.5,7.5,124.49,21,187.49,21,48,0,96,0,144,1.5,30,0,69,6,97.5-3C498.59,554.25,480.59,537.75,468.59,533.25Z"
                transform="translate(0 -316.15)" fill="#c1d3f4" />
            <path
                d="M902,776.32V508.51c-81.92-22.95-244.7,21-330.54,24.08-124.08,6.52-205.21-26.07-319.75-61.92-85.58-25-164.2-19.19-250.71-14.93V770.05c13.25,1.65,26.49,4,39.74,6.27Z"
                transform="translate(0 -316.15)" fill="#a2c9f9" />
            <path
                d="M902,559c-50.33.68-96.45,4-125.31,6.16C511.9,589.69,285.08,697.72,16.89,691.55v84.77H902Z"
                transform="translate(0 -316.15)" fill="#6a82c6" />
            <path
                d="M1,455.74v33.31c11.09.09,21.63.76,30.14,6l12.43-4.5c67.47-4.5,127.82-21,193.51-3,28.41,9,56,19.06,83.45,25.5,63.92,15,79.89,24,134.93,25.5,31.06,1.34,89.47,6.24,108.82-5.62-120.06,4.91-200.26-27.1-312.57-62.25C166.13,445.64,87.51,451.48,1,455.74Z"
                transform="translate(0 -316.15)" fill="#c7dcf9" />
            <path
                d="M894,672.26c-37.49-3-75-24-75-24-39-13.5-118.5-10.5-118.5-10.5-72,6-190.53-27.61-190.53-27.61-42-26-137-38-137-38-25-6-67,2-67,2-40,8-122,17-122,17-61.09,11.56-152.85,6.76-183,4.73V911.43H902V672.26Z"
                transform="translate(0 -316.15)" fill="#4b5c8c" />
            <path
                d="M902,732.93C758.15,703.47,452.67,624.81,452.67,624.81c-32-7.33-40.67-16.33-40.67-16.33-7.33-8.67,28.67-8,28.67-8-17.67-1.67-63.34-2-63.34-2C363,598.15,346,603.15,346,603.15c-9.67,4.33-25,9-25,9-22,11-127,24-127,24-24,4-145.57,25.33-193,33.66V911.43H902Z"
                transform="translate(0 -316.15)" fill="#bfccf7" />
            <path
                d="M372.36,620l.83.21s-4.71-13.71,21.92-19.33C395.11,600.9,370.23,604.9,372.36,620Z"
                transform="translate(0 -316.15)" fill="#e1ecff" />
            <polygon points="472 540 438 539 450.85 595.28 494.98 595.28 472 540" fill="#e1ecff" />
            <polygon points="399.5 406.5 415.33 407 404.5 383 393.67 383.67 399.5 406.5"
                fill="#e1ecff" />
            <polygon points="382.5 348.5 388.67 347.67 394.33 358.17 386.67 358.67 382.5 348.5"
                fill="#e1ecff" />
            <polygon points="378.63 333.33 382.54 333.21 384.96 337.67 379.75 337.58 378.63 333.33"
                fill="#e1ecff" />
            <polygon points="376.54 324.79 379.42 324.75 380.92 327.25 377.04 327.21 376.54 324.79"
                fill="#e1ecff" />
            <polygon points="375.25 319.25 377.17 319.25 378.38 321 375.58 320.87 375.25 319.25"
                fill="#e1ecff" />
            <polygon points="374.13 314.87 375.58 314.83 376.46 316.29 374.33 316.21 374.13 314.87"
                fill="#e1ecff" />
            <polygon points="373.46 311.54 374.75 311.5 375.31 313 373.75 313 373.46 311.54"
                fill="#e1ecff" />
            <polygon points="372.88 309.04 373.92 309.04 374.54 310.17 373.13 310 372.88 309.04"
                fill="#e1ecff" />
            <polygon points="372.46 307.75 373.63 307.83 373.17 306.83 372.5 306.79 372.46 307.75"
                fill="#e1ecff" />
            <polygon points="372.42 305.75 373.13 305.71 373.04 305 372.38 304.96 372.42 305.75"
                fill="#99adf9" />
            <path
                d="M902,756.68c-98.84-27.36-402.29-111.56-442.67-125.2,0,0-39.33-12-48.66-17.33,0,0-15.34-7,.83-11.5,0,0-17.17,1.5-10.33,10.16,0,0,7.08,5.59,20.33,10.84,0,0,247.5,85.06,480.5,146.58Z"
                transform="translate(0 -316.15)" fill="#e1ecff" />
            <path
                d="M1,696.53c60.34-19.47,229.25-56.13,229.25-56.13C293,629.65,312.5,620,312.5,620c5.17-1.83,24.33-10.17,24.33-10.17,7.5-4,31.17-10,31.17-10-10.33,1.34-31.67,9.34-31.67,9.34l-.18.08c-6.81,3-24.48,9.58-24.48,9.58-20,9.67-86.67,19.34-86.67,19.34C175.54,645.34,29.85,676.8,1,683.06Z"
                transform="translate(0 -316.15)" fill="#e1ecff" />
            <path
                d="M726.38,449.45c-2.17,8.19-25.42,9.14-51.93,2.12S628.2,432.22,630.37,424s25.42-9.14,51.93-2.12S728.54,441.26,726.38,449.45Z"
                transform="translate(0 -316.15)" fill="#ebb379" />
            <path
                d="M766.78,571.18c-.2-.27-20.35-27.18-43.57-22.94l-.09-.49c23.52-4.28,43.85,22.87,44,23.14Z"
                transform="translate(0 -316.15)" />
            <path
                d="M751.5,573.56c-.1-.21-10.63-21.15-29.29-21.21v-.49c19,.06,29.62,21.27,29.73,21.49Z"
                transform="translate(0 -316.15)" />
            <polygon points="689.64 277.9 775.79 249.37 794.96 320.51 706.11 360.51 689.64 277.9"
                fill="#7848a4" />
            <polygon points="678.18 275.2 695.73 355.75 706.11 360.51 689.64 277.9 678.18 275.2"
                fill="#191315" />
            <polygon points="775.79 249.37 763.6 246.55 678.18 275.2 689.64 277.9 775.79 249.37"
                fill="#432960" />
            <path
                d="M696.79,585.08c1.66-7.93,7.21-28.89,20-32.91l-.14-.47C703.62,555.8,698,577,696.31,585Z"
                transform="translate(0 -316.15)" />
            <path
                d="M704.14,595.49c.74-11,4.13-44.77,18.06-47l-.73.51c-12.73,3.84-16.07,35.92-16.83,46.51Z"
                transform="translate(0 -316.15)" />
            <path d="M706.11,595.48a1.72,1.72,0,1,1-1.32-2A1.73,1.73,0,0,1,706.11,595.48Z"
                transform="translate(0 -316.15)" />
            <path
                d="M738.47,620.4a2.48,2.48,0,0,1,1.45,1.39l.11.25.17.4-.39.17-1,.44-.4.17-.17-.4-.11-.25a.65.65,0,0,0-.37-.36.65.65,0,0,0-.51,0,.65.65,0,0,0-.36.37.67.67,0,0,0,0,.52l2.63,6a.67.67,0,0,0,.37.37.72.72,0,0,0,.52,0,.7.7,0,0,0,.35-.37.63.63,0,0,0,0-.52l-.11-.25-.17-.39.39-.17,1-.44.4-.17.17.39.11.25a2.55,2.55,0,0,1,0,2,2.51,2.51,0,0,1-1.4,1.44,2.45,2.45,0,0,1-2,0,2.53,2.53,0,0,1-1.45-1.4l-2.63-6a2.51,2.51,0,0,1,0-2,2.58,2.58,0,0,1,3.4-1.48Z"
                transform="translate(0 -316.15)" fill="#ede4ec" />
            <path
                d="M748.14,625.41a2.51,2.51,0,0,1,0,2,2.47,2.47,0,0,1-1.39,1.44,2.51,2.51,0,0,1-2,0,2.57,2.57,0,0,1-1.44-1.4l-3.51-8.07-.17-.39.39-.17,1-.44.39-.17.17.4,3.51,8.07a.59.59,0,0,0,.37.35.68.68,0,0,0,.87-.37.67.67,0,0,0,0-.52l-3.5-8.07-.18-.39.4-.18,1-.44.4-.16.17.39Z"
                transform="translate(0 -316.15)" fill="#ede4ec" />
            <path
                d="M749.8,615.48a2.51,2.51,0,0,1,1.44,1.4l.11.24.17.4-.4.17-1,.44-.4.17-.17-.4-.1-.25a.63.63,0,0,0-.38-.35.58.58,0,0,0-.5,0,.67.67,0,0,0-.37.37.72.72,0,0,0,0,.52l2.63,6a.65.65,0,0,0,.37.36.72.72,0,0,0,.52,0,.68.68,0,0,0,.34-.89l-.11-.25-.17-.39.4-.17,1-.44.4-.17.17.39.11.25a2.63,2.63,0,0,1-1.36,3.45,2.47,2.47,0,0,1-2,0,2.54,2.54,0,0,1-1.45-1.39l-2.62-6a2.62,2.62,0,0,1,3.37-3.49Z"
                transform="translate(0 -316.15)" fill="#ede4ec" />
            <path
                d="M752.38,613.51l.39-.17.17.39,1.8,4.15,1.29-.56-1.8-4.15-.18-.39.4-.17,1-.44.39-.17.18.39,4.37,10.09.18.39-.4.17-1,.44-.39.17-.17-.39-1.8-4.15-1.29.56,1.8,4.15.17.39-.39.17-1,.44-.39.17-.17-.4-4.38-10.08-.17-.39.39-.17Z"
                transform="translate(0 -316.15)" fill="#ede4ec" />
            <path
                d="M758.32,610.93l.38-.17.17.4,4.38,10.08.18.39-.39.17-1,.44-.38.17-.17-.39-4.39-10.09-.17-.39.39-.17Z"
                transform="translate(0 -316.15)" fill="#ede4ec" />
            <path d="M752.36,556.45a78.11,78.11,0,0,1,14.81,14.44l-.39.29a78,78,0,0,0-15.24-14.73Z"
                transform="translate(0 -316.15)" />
            <path
                d="M766.78,571.18c-.2-.27-20.35-27.18-43.57-22.94l-.09-.49c23.52-4.28,43.85,22.87,44,23.14Z"
                transform="translate(0 -316.15)" />
            <path
                d="M751.5,573.56c-.1-.21-10.63-21.15-29.29-21.21v-.49c19,.06,29.62,21.27,29.73,21.49Z"
                transform="translate(0 -316.15)" />
            <path
                d="M539.87,402.24a9.76,9.76,0,0,1-5.85-5.4c5.87-2.78,12.32.33,12.32.33,4,1.28,8.15,6,8.15,6l2.85,4.28a28.2,28.2,0,0,0,4.27,5.33l13.69,14.66H561.22l-.28-.4c-5-8.05-6.15-9.45-6.86-10A47.29,47.29,0,0,1,549,412.8c-3.81-2.25-4.49-.57-4.49-.57-6.62-2.14-4.53-5-4.53-5,1.39-1.15,7,.2,7,.2C546.42,406,539.87,402.24,539.87,402.24Z"
                transform="translate(0 -316.15)" fill="#f29687" />
            <path
                d="M561,427.15l6.18-8.39,35.35,37.83c3.37,3.57,6,6,6,6l41.9,33.59c12,10.46,9.29,15.58,9.29,15.58l-5.18,1.1-29.7-15.31c-13.62-8.94-34.88-35-34.88-35C580.62,455.2,562.3,429,561,427.15Z"
                transform="translate(0 -316.15)" fill="#ede4ec" />
            <g clip-path="url(#clip-path)">
                <rect x="575.91" y="455.98" width="75.65" height="5.86"
                    transform="translate(-119.72 364.83) rotate(-53.63)" fill="#ffca61" />
                <rect x="585.83" y="463.28" width="75.65" height="5.86"
                    transform="translate(-121.55 375.82) rotate(-53.63)" fill="#ffca61" />
                <rect x="595.75" y="470.58" width="75.65" height="5.86"
                    transform="translate(-123.41 386.75) rotate(-53.63)" fill="#ffca61" />
                <rect x="605.66" y="477.89" width="75.65" height="5.86"
                    transform="translate(-125.25 397.7) rotate(-53.63)" fill="#ffca61" />
                <rect x="615.58" y="485.19" width="75.65" height="5.86"
                    transform="translate(-127.1 408.65) rotate(-53.63)" fill="#ffca61" />
                <rect x="625.5" y="492.49" width="75.65" height="5.87"
                    transform="translate(-128.93 419.65) rotate(-53.63)" fill="#ffca61" />
                <rect x="516.11" y="418.5" width="75.65" height="5.87"
                    transform="translate(-113.88 301.41) rotate(-53.63)" fill="#ffca61" />
                <rect x="526.03" y="425.8" width="75.65" height="5.86"
                    transform="matrix(0.59, -0.81, 0.81, 0.59, -115.72, 312.39)" fill="#ffca61" />
                <rect x="535.95" y="433.1" width="75.65" height="5.86"
                    transform="translate(-117.57 323.34) rotate(-53.63)" fill="#ffca61" />
                <rect x="545.87" y="440.41" width="75.65" height="5.86"
                    transform="translate(-119.4 334.33) rotate(-53.63)" fill="#ffca61" />
                <rect x="555.78" y="447.71" width="75.65" height="5.86"
                    transform="translate(-121.25 345.28) rotate(-53.63)" fill="#ffca61" />
                <rect x="565.7" y="455.01" width="75.65" height="5.86"
                    transform="translate(-123.09 356.23) rotate(-53.63)" fill="#ffca61" />
            </g>
            <path
                d="M699,811.84s3.95,1.1,4.83,13.2l2.2,28.59s1.32,8.58-4.4,12.31l-8.35,5.28s-4.62,3.08-6.6-2.42c0,0-2-7-.22-12.09C686.42,856.71,686.2,806.56,699,811.84Z"
                transform="translate(0 -316.15)" fill="#49363c" />
            <path
                d="M687.52,831.93s.58-16.42,2.64-24.63a54.15,54.15,0,0,0,.88-7.92s-8.61-38.22-9.72-78.86H708.7c1.59,20,.06,48.34-10.63,85.6,0,0,3.52,3.23,3.82,13.79l2.93,32.54s2.35,9.39-9.09,9.68l-6.45-.29s-3.82.29-2.64-6.16Z"
                transform="translate(0 -316.15)" fill="#f29687" />
            <path
                d="M709.17,729.39H681.68a271.57,271.57,0,0,1,.56-40.26s-7.92-47.07-9.68-77,1.91-48.82,21.41-55.86c0,0,39.29,11.15,5.86,127.27C699.83,683.56,708.33,698.33,709.17,729.39Z"
                transform="translate(0 -316.15)" fill="#49363c" />
            <path
                d="M702.26,719.65l.88,0s0-.81-.08-2.2l-.88,0C702.24,718.84,702.26,719.65,702.26,719.65Z"
                transform="translate(0 -316.15)" fill="#191315" />
            <path
                d="M701.6,708.78l.88-.08c.14,1.57.25,3,.34,4.36l-.88.06C701.86,711.81,701.75,710.35,701.6,708.78Zm-1-8.64.87-.13c.2,1.39.39,2.84.56,4.34l-.87.1C701,703,700.8,701.51,700.6,700.14Zm-1.6-8.55.86-.2c.32,1.35.62,2.8.89,4.3l-.86.16C699.61,694.36,699.31,692.93,699,691.59Zm-2.43-7.85-.06-.14.17-.57.84.25-.08.27c.45,1.09.88,2.3,1.28,3.6l-.84.26C697.47,686.08,697,684.84,696.57,683.74Zm1.3-4.91c.32-1.2.7-2.62,1.12-4.22l.85.22c-.42,1.61-.8,3-1.13,4.23Zm2.19-8.45c.33-1.33.68-2.75,1-4.24l.85.2c-.35,1.5-.69,2.91-1,4.25Zm2-8.49c.31-1.38.62-2.8.93-4.27l.86.19c-.31,1.47-.62,2.89-.93,4.27Zm1.82-8.54c.28-1.39.56-2.82.83-4.28l.87.16c-.28,1.46-.56,2.89-.84,4.3Zm1.62-8.57c.25-1.41.49-2.85.73-4.3l.87.14c-.24,1.46-.49,2.9-.74,4.32Zm1.4-8.61c.21-1.43.41-2.86.61-4.32l.87.12c-.2,1.46-.4,2.9-.61,4.33Zm1.15-8.64c.17-1.44.32-2.88.47-4.33l.87.09c-.14,1.45-.3,2.9-.47,4.34Zm.86-8.67c.12-1.46.22-2.91.3-4.36l.88,0c-.08,1.46-.19,2.92-.31,4.38Zm.51-8.71c.05-1.46.08-2.91.1-4.35h.88c0,1.45,0,2.91-.1,4.37Zm-.09-13,.88-.05c.07,1.41.13,2.88.16,4.37l-.88,0C709.47,600,709.42,598.51,709.34,597.11Zm-.83-8.65.87-.12c.2,1.4.37,2.86.51,4.35l-.87.08C708.88,591.3,708.71,589.85,708.51,588.46ZM706.8,580l.85-.23c.37,1.36.71,2.8,1,4.28l-.86.16C707.5,582.73,707.17,581.31,706.8,580Zm-2.95-8.12.8-.38a43.21,43.21,0,0,1,1.69,4.07l-.83.3A41.53,41.53,0,0,0,703.85,571.85Z"
                transform="translate(0 -316.15)" fill="#191315" />
            <path
                d="M701.82,568.18l.74-.48c-.41-.63-.84-1.25-1.27-1.83l-.71.53C701,567,701.42,567.56,701.82,568.18Z"
                transform="translate(0 -316.15)" fill="#191315" />
            <path
                d="M628.87,720.52h26.37a121.55,121.55,0,0,1-5.55,30.18S633,787.21,633,807.45c0,0-1.18,1,2.2,5.71,0,0,4.83,9.68-1,22.88,0,0-2,4.39-1.76,14.07,0,0,.88,8.21-8.21,8.5l-4.4-.29s-2.34.29-.59-3.23a119.05,119.05,0,0,0-.63-15.86q-.1-.76-.24-1.44c-1.18-5.86,2.93-27.85,4.54-33.42C622.86,804.37,625.62,753.15,628.87,720.52Z"
                transform="translate(0 -316.15)" fill="#f29687" />
            <path
                d="M651,692.64s5.48,10.06,4.1,30.15H628.65c1.12-11.59,2.3-21.14,3.45-25.75,0,0-16.72-86.65,7.47-131.95,0,0,6.6-11.88,15.84-3.52s15.84,15,14.52,31.67C669.93,593.24,672.56,643.38,651,692.64Z"
                transform="translate(0 -316.15)" fill="#49363c" />
            <path
                d="M632.76,810.3s11,1.76,6.81,17.16l-1.75,31.67-2.2,1.1.44-24.63a20.49,20.49,0,0,0-2.18,8.13c0,.29,0,.58,0,.88a70.45,70.45,0,0,1-1.1,13.2l-1.1,3.29s-1.76,3.3-7.48,4.63l-9.46,2s-4.39,2-3.29-2.42c0,0,3.44-7.4,7.76-10.19,0,0,1.25,6.23,10.27,1.18,0,0,3.3-1.76,2.2-11.44,0,0,.66-15.17,4.18-21.77C635.84,823.06,636.5,814.92,632.76,810.3Z"
                transform="translate(0 -316.15)" fill="#49363c" />
            <path
                d="M647.37,554.84h49.1a10.89,10.89,0,0,0,2.93,5S680,566.85,673,595c0,0-.88,4.4-3.07.44,0,0-9.68-32.11-26.39-34.31A14.89,14.89,0,0,0,647.37,554.84Z"
                transform="translate(0 -316.15)" fill="#49363c" />
            <path
                d="M697.25,547a11.84,11.84,0,0,0,.08,9.85l-50.71.08A18,18,0,0,0,648,545.78l-4.87-20.66s-10.57-3.94-4.87-16.27l-.47-17.15s-2.21-7,13.18-7.5l11.43-3.54s.57-1.69,1.16-8.28l17.81-4.07s1.26,11.44,12.26,12.73L706.38,485s5.73,2.63,3.11,13.19Z"
                transform="translate(0 -316.15)" fill="#ede4ec" />
            <g clip-path="url(#clip-path-2)">
                <rect x="632.17" y="226.38" width="75.65" height="5.87" fill="#ffca61" />
                <rect x="632.17" y="214.07" width="75.65" height="5.86" fill="#ffca61" />
                <rect x="632.17" y="201.75" width="75.65" height="5.87" fill="#ffca61" />
                <rect x="632.17" y="189.44" width="75.65" height="5.86" fill="#ffca61" />
                <rect x="632.17" y="177.12" width="75.65" height="5.87" fill="#ffca61" />
                <rect x="632.17" y="164.8" width="75.65" height="5.87" fill="#ffca61" />
            </g>
            <path
                d="M688.84,558.49s-4.84-.88-6.6-2.64c0,0,5.28-2.2,9.68.44,0,0,4.4,0,10.11,4.4,0,0,4.4,0,9.68-4.4l12.83-9.56v12.65l-12.39,7.91s-1.76,3.52-4.84,2.64l-14.95-1.32a26.21,26.21,0,0,0-10.12,2.2s-5.72.44-7.92-2.2C674.32,568.61,678.72,559.37,688.84,558.49Z"
                transform="translate(0 -316.15)" fill="#f29687" />
            <path
                d="M717.21,552.19l20.45-15.25-30.42-30.48-.58-17.88-.23-3.54L741.62,522l7,7.91s8.8,8.36,0,14.08l-27,18.2Z"
                transform="translate(0 -316.15)" fill="#ede4ec" />
            <g clip-path="url(#clip-path-3)">
                <rect x="712.38" y="525.38" width="64.8" height="5.02"
                    transform="translate(-23.43 -281.44) rotate(-2.63)" fill="#ffca61" />
                <rect x="729.37" y="524.46" width="5.02" height="64.8"
                    transform="translate(-168.06 430.01) rotate(-49.14)" fill="#ffca61" />
                <rect x="740.83" y="519.23" width="5.02" height="64.8"
                    transform="translate(-145.93 492.5) rotate(-52.7)" fill="#ffca61" />
                <rect x="746.6" y="508.26" width="5.02" height="64.8"
                    transform="translate(19.7 791.48) rotate(-73.68)" fill="#ffca61" />
                <rect x="706.27" y="513.14" width="64.8" height="5.02"
                    transform="translate(-90.84 -151.83) rotate(-11.96)" fill="#ffca61" />
                <rect x="698.38" y="501.89" width="64.8" height="5.02"
                    transform="translate(-124.56 -50.19) rotate(-19.04)" fill="#ffca61" />
                <rect x="691.84" y="489.65" width="64.8" height="5.02"
                    transform="translate(-148.84 109.11) rotate(-29.82)" fill="#ffca61" />
                <rect x="686.59" y="480.5" width="64.8" height="5.02"
                    transform="translate(-144.98 105.26) rotate(-29.81)" fill="#ffca61" />
            </g>
            <path
                d="M651,484.2l10.69-3.31L665.16,461l18-2.64-.78,13.81A13.39,13.39,0,0,0,693.62,481l6.88,2.13c-2.3,9.9-13.73,17.43-27.49,17.43-13.07,0-24-6.78-27.08-15.94A37.21,37.21,0,0,1,651,484.2Z"
                transform="translate(0 -316.15)" fill="#f29687" />
            <path d="M665.16,461l18-2.64-.44,7.85a14,14,0,0,1-10.4,4,16,16,0,0,1-8.35-2.67Z"
                transform="translate(0 -316.15)" fill="#f06a7c" />
            <path
                d="M653.29,443.56c2.56,15.91,8.28,23.83,16.42,24.05,10.56.28,18.17-11.41,18.17-24.05s-2.91-21.41-14.66-22.28C657.39,420.1,651.27,431.09,653.29,443.56Z"
                transform="translate(0 -316.15)" fill="#f29687" />
            <path
                d="M661.73,456.89s1-3.13,3.36-1.6c0,0,1.24-1.21,3.17.48a2.91,2.91,0,0,0,2.22.57S669.48,459.09,661.73,456.89Z"
                transform="translate(0 -316.15)" fill="#f06a7c" />
            <path
                d="M666.33,443.48s.36,4.38-1.29,5.94c0,0-.49,1.28,1.69,2.24,0,0,.26,1.34-1.78,1,0,0-3.37-.49-1-3.68a4,4,0,0,0,1.71-4.39A3,3,0,0,1,666.33,443.48Z"
                transform="translate(0 -316.15)" fill="#f06a7c" />
            <path
                d="M671.29,440.05l.29-.19a7.18,7.18,0,0,1,.78-.42,5.72,5.72,0,0,1,.55-.22,3.26,3.26,0,0,1,.65-.18,5.13,5.13,0,0,1,.7-.1,3.72,3.72,0,0,1,.74,0l.36.07.34.12a2.67,2.67,0,0,1,.63.32,4.3,4.3,0,0,1,.51.4,3,3,0,0,1,.39.42,4.2,4.2,0,0,1,.48.7c.1.18.17.28.17.28l-.2-.26a4.26,4.26,0,0,0-.54-.64,2.58,2.58,0,0,0-.42-.37,4.08,4.08,0,0,0-.51-.33,3.92,3.92,0,0,0-.6-.23l-.32-.08-.33,0a4.85,4.85,0,0,0-.66,0,5.43,5.43,0,0,0-.61.16,3.11,3.11,0,0,0-.56.22,4.29,4.29,0,0,0-.48.24,5.8,5.8,0,0,0-.89.64.38.38,0,0,1-.53,0,.37.37,0,0,1,0-.53l0,0Z"
                transform="translate(0 -316.15)" fill="#f06a7c" />
            <path
                d="M662.41,440.55l-.25-.24a7.35,7.35,0,0,0-.69-.56c-.16-.1-.32-.23-.5-.32a4.8,4.8,0,0,0-.6-.3,4.91,4.91,0,0,0-.68-.22,3.57,3.57,0,0,0-.73-.1h-.36l-.37.05a3,3,0,0,0-.67.2,4.37,4.37,0,0,0-.57.3,2.89,2.89,0,0,0-.46.34,3.86,3.86,0,0,0-.61.6c-.14.15-.21.24-.21.24l.23-.21a3.76,3.76,0,0,1,.66-.53,2.16,2.16,0,0,1,.47-.28,3.25,3.25,0,0,1,.57-.24,2.68,2.68,0,0,1,.63-.11l.33,0,.33,0a3.22,3.22,0,0,1,.63.15,4.56,4.56,0,0,1,.59.26,2.84,2.84,0,0,1,.5.32,5.36,5.36,0,0,1,.43.33,5.26,5.26,0,0,1,.75.79.37.37,0,0,0,.53.08.36.36,0,0,0,.08-.52.05.05,0,0,0,0,0Z"
                transform="translate(0 -316.15)" fill="#f06a7c" />
            <path
                d="M664.07,459.27s.26.09.64.19c.19.06.42.09.65.15s.5.06.75.08a3,3,0,0,0,.74,0,2.42,2.42,0,0,0,.64-.13,5.25,5.25,0,0,0,.62-.2s0,0,.06,0a0,0,0,0,1,0,.05l-.15.12a2.81,2.81,0,0,1-.43.26,2.76,2.76,0,0,1-.67.24,3.68,3.68,0,0,1-.82.07,4.05,4.05,0,0,1-.8-.13,3.76,3.76,0,0,1-.66-.27A2.41,2.41,0,0,1,664.07,459.27Z"
                transform="translate(0 -316.15)" fill="#f06a7c" />
            <path
                d="M661.36,428.61s6.51,16.49,24.4,16.79a31.68,31.68,0,0,1-4,15.61s-5.78,11.3-.21,18c0,0-1.47,8.21,8.5,7.92,0,0,2.94,7,11.45,2,0,0,3.22,7,11.14,2.34l4,4s13.93-8.94,1.62-22.72c0,0-1.76-4.4-11.15-9.09,0,0-12.9-4.4-11.73-17.89,0,0,7.92-27.56-23.16-29.91C672.21,415.71,655.79,414,661.36,428.61Z"
                transform="translate(0 -316.15)" fill="#49363c" />
            <path
                d="M653.29,445.32s.58-16.27,7.91-19.2c0,0,3.52-4.69-1.46-5C659.74,421.13,648.89,422.89,653.29,445.32Z"
                transform="translate(0 -316.15)" fill="#49363c" />
            <polygon points="705.77 414.49 704.01 407.45 700.94 416.69 705.77 414.49"
                fill="#f29687" />
            <polygon points="651.23 410.09 649.03 400.85 645.52 410.97 651.23 410.09"
                fill="#f29687" />
            <path
                d="M647.71,713.47s0-1.8,0-4.39h.88c0,2.6,0,4.41,0,4.41Zm-.15-13.16.89,0c.07,1.33.12,2.82.15,4.41l-.88,0C647.69,703.11,647.63,701.63,647.56,700.31Zm-1.13-8.22-.06-.15.16-.48.83.27-.06.19a18.51,18.51,0,0,1,.79,3.92l-.88.1A16.52,16.52,0,0,0,646.43,692.09Zm1.39-4.84c.36-1.2.78-2.61,1.24-4.23l.84.25c-.45,1.61-.87,3-1.23,4.23Zm2.42-8.46c.36-1.34.75-2.76,1.14-4.25l.85.22q-.59,2.25-1.14,4.26Zm2.23-8.52c.34-1.38.69-2.8,1-4.27l.86.2c-.35,1.48-.71,2.91-1,4.29Zm2-8.56c.32-1.4.64-2.83,1-4.29l.86.18c-.31,1.47-.63,2.91-1,4.31Zm1.86-8.6c.28-1.41.57-2.85.85-4.31l.86.17c-.28,1.46-.56,2.9-.86,4.32Zm1.64-8.63c.26-1.44.5-2.88.74-4.34l.87.14c-.24,1.47-.49,2.92-.74,4.35Zm1.42-8.68c.22-1.44.42-2.89.62-4.36l.87.12c-.2,1.46-.4,2.92-.62,4.37Zm1.16-8.71c.17-1.45.33-2.91.47-4.37l.88.09q-.23,2.19-.48,4.38Zm.86-8.75q.18-2.19.3-4.38l.88,0c-.09,1.47-.19,2.93-.3,4.4Zm.5-8.77c0-1.47.09-2.93.1-4.39h.88c0,1.46,0,2.93-.1,4.41Zm-.09-13.15.88,0c.08,1.44.13,2.92.16,4.41l-.88,0C662,599.32,661.94,597.84,661.86,596.42Z"
                transform="translate(0 -316.15)" fill="#191315" />
            <path
                d="M665.64,594.59l0-.88a9.31,9.31,0,0,0,4.05-.86l.39.78a10,10,0,0,1-4.1,1Zm-6-6.19.86-.17a8.32,8.32,0,0,0,1.65,3.78l-.67.57A9.13,9.13,0,0,1,659.64,588.4Zm-1.27-8.75.88-.08c.12,1.46.29,2.92.49,4.35l-.87.12C658.66,582.6,658.49,581.13,658.37,579.65Zm-.29-6.7c0-.7,0-1.42,0-2.14l.88,0c0,.72,0,1.43,0,2.12s0,1.52,0,2.25l-.88,0C658.1,574.49,658.08,573.73,658.08,573Zm.3-6.56c.14-1.49.33-3,.56-4.39l.87.14c-.23,1.4-.42,2.85-.55,4.33Z"
                transform="translate(0 -316.15)" fill="#191315" />
            <polygon points="689.64 277.9 775.79 249.37 794.96 320.51 706.11 360.51 689.64 277.9"
                fill="#ff97c9" />
            <polygon points="678.18 275.2 695.73 355.75 706.11 360.51 689.64 277.9 678.18 275.2"
                fill="#e580b5" />
            <polygon points="775.79 249.37 763.6 246.55 678.18 275.2 689.64 277.9 775.79 249.37"
                fill="#e580b5" />
            <path
                d="M696.79,585.08c1.66-7.93,7.21-28.89,20-32.91l-.14-.47C703.62,555.8,698,577,696.31,585Z"
                transform="translate(0 -316.15)" />
            <path
                d="M704.14,595.49c.74-11,4.13-44.77,18.06-47l-.73.51c-12.73,3.84-16.07,35.92-16.83,46.51Z"
                transform="translate(0 -316.15)" />
            <path d="M706.11,595.48a1.72,1.72,0,1,1-1.32-2A1.73,1.73,0,0,1,706.11,595.48Z"
                transform="translate(0 -316.15)" />
            <path
                d="M738.47,620.4a2.48,2.48,0,0,1,1.45,1.39l.11.25.17.4-.39.17-1,.44-.4.17-.17-.4-.11-.25a.65.65,0,0,0-.37-.36.65.65,0,0,0-.51,0,.65.65,0,0,0-.36.37.67.67,0,0,0,0,.52l2.63,6a.67.67,0,0,0,.37.37.72.72,0,0,0,.52,0,.7.7,0,0,0,.35-.37.63.63,0,0,0,0-.52l-.11-.25-.17-.39.39-.17,1-.44.4-.17.17.39.11.25a2.55,2.55,0,0,1,0,2,2.51,2.51,0,0,1-1.4,1.44,2.45,2.45,0,0,1-2,0,2.53,2.53,0,0,1-1.45-1.4l-2.63-6a2.51,2.51,0,0,1,0-2,2.58,2.58,0,0,1,3.4-1.48Z"
                transform="translate(0 -316.15)" fill="#ede4ec" />
            <path
                d="M748.14,625.41a2.51,2.51,0,0,1,0,2,2.47,2.47,0,0,1-1.39,1.44,2.51,2.51,0,0,1-2,0,2.57,2.57,0,0,1-1.44-1.4l-3.51-8.07-.17-.39.39-.17,1-.44.39-.17.17.4,3.51,8.07a.59.59,0,0,0,.37.35.68.68,0,0,0,.87-.37.67.67,0,0,0,0-.52l-3.5-8.07-.18-.39.4-.18,1-.44.4-.16.17.39Z"
                transform="translate(0 -316.15)" fill="#ede4ec" />
            <path
                d="M749.8,615.48a2.51,2.51,0,0,1,1.44,1.4l.11.24.17.4-.4.17-1,.44-.4.17-.17-.4-.1-.25a.63.63,0,0,0-.38-.35.58.58,0,0,0-.5,0,.67.67,0,0,0-.37.37.72.72,0,0,0,0,.52l2.63,6a.65.65,0,0,0,.37.36.72.72,0,0,0,.52,0,.68.68,0,0,0,.34-.89l-.11-.25-.17-.39.4-.17,1-.44.4-.17.17.39.11.25a2.63,2.63,0,0,1-1.36,3.45,2.47,2.47,0,0,1-2,0,2.54,2.54,0,0,1-1.45-1.39l-2.62-6a2.62,2.62,0,0,1,3.37-3.49Z"
                transform="translate(0 -316.15)" fill="#ede4ec" />
            <path
                d="M752.38,613.51l.39-.17.17.39,1.8,4.15,1.29-.56-1.8-4.15-.18-.39.4-.17,1-.44.39-.17.18.39,4.37,10.09.18.39-.4.17-1,.44-.39.17-.17-.39-1.8-4.15-1.29.56,1.8,4.15.17.39-.39.17-1,.44-.39.17-.17-.4-4.38-10.08-.17-.39.39-.17Z"
                transform="translate(0 -316.15)" fill="#ede4ec" />
            <path
                d="M758.32,610.93l.38-.17.17.4,4.38,10.08.18.39-.39.17-1,.44-.38.17-.17-.39-4.39-10.09-.17-.39.39-.17Z"
                transform="translate(0 -316.15)" fill="#ede4ec" />
            <path d="M752.36,556.45a78.11,78.11,0,0,1,14.81,14.44l-.39.29a78,78,0,0,0-15.24-14.73Z"
                transform="translate(0 -316.15)" />
            <path
                d="M682.3,421.91a150.56,150.56,0,0,1,18.91,6.33c-2.53-8.37-10.78-15.41-21.52-17.32-9.45-1.68-18.45,1-24.07,6.47A138.82,138.82,0,0,1,682.3,421.91Z"
                transform="translate(0 -316.15)" fill="#cb8f57" />
            <path
                d="M682.3,421.91c-26.51-7-49.76-6.07-51.93,2.12a5.14,5.14,0,0,0-.15,1.3c6.93-5.06,27.06-4.84,49.53,1.11,25.15,6.66,44.18,18.09,44.23,26.24a6,6,0,0,0,2.4-3.23C728.54,441.26,708.81,428.93,682.3,421.91Z"
                transform="translate(0 -316.15)" fill="#ebb379" />
            <path
                d="M890.37,876.51h0l-.17,0-2-.28-.67-.1L886,875.9l-.84-.11-.32,0h0c-13-1.64-35.56-3.67-74.89-6,0,0,2.49-.27-.21-.85.39-.2-.14-.51-3.36-1l-16.75-2.5s-3.87-.77-16.63-.84l-18.53-.07s-53.31.85-52.83,1.4c0,0,14.73,3.07,21.47,3.42,0,0,36.26-2.54,45.1-1.74l-18.29,4.81s35.71-3,45.26-2.38c0,0,2.93.19,7.25.62,0,0,10.69,3.09,34,6.29h0l.21,0q2.67.38,5.56.73h0c7.07.9,15.14,1.79,24.26,2.6,0,0,18,3.86,35.56,6.47V880l-.56,0S904.91,878.7,890.37,876.51Z"
                transform="translate(0 -316.15)" fill="#313166" opacity="0.5"
                style="mix-blend-mode:multiply" />
            <path
                d="M902,899.07c-17.08,1.41-34.65,4.36-34.65,4.36A230.75,230.75,0,0,0,842,907.69h0a22.87,22.87,0,0,1-4.89,1.14c-3.75.32-5.82.58-5.82.58a72.88,72.88,0,0,1-7.49.25c-10.1.47-4.39.62-4.39.62,3.3,0,12.1-.33,12.1-.33s-8.72.76-8.72.76c-6.83.35-6.42.7-6.41.71h.21c12.24,0,21.25-.57,21.25-.57,6.06-.29,10-.87,10-.87l1.94-.49a29,29,0,0,1,3.66-.63l5.53-.75,35-4.74c3.36-.45,6.13-.77,6.13-.77l2-.19Z"
                transform="translate(0 -316.15)" fill="#313166" opacity="0.5"
                style="mix-blend-mode:multiply" />
            <path
                d="M635.68,869.18s7.48.8,10.33,1.35c.24.05.45.09.61.14,2.17.54,25.26,2.21,32.12,2.6,0,0,41.81,4.18,71.07,6.78h0c9.47.84,17.62,1.51,22.62,1.83,0,0,33.08,8,108.36,10.75,0,0,6,.21,13.12.22,2.19,0,5.17.14,8,.29H902v-5.57c-15.14-1.53-45.2-4.09-93.09-6.16,0,0,2.39-1.09-14.53-2.72h0c-6.57-.63-16-1.34-29.66-2.1,0,0-55.77-2.33-70.37-4,0,0-1.66,0-1.25-.27,3.71-.17,13.91-.77-1.57-1.7L665.57,868H660.9l18.55,2.05s-6-.21-9.71-.59l-.67-.07c-3.65-.43-8.08-.83-11.46-1.06l-4.32-.23s-5.47-.2-16.49-.06l-18.08.25s-9.17,0-4.07.35C614.65,868.66,626.06,869.13,635.68,869.18Z"
                transform="translate(0 -316.15)" fill="#313166" opacity="0.5"
                style="mix-blend-mode:multiply" />
            <polygon points="431.79 339.96 431.8 339.96 431.8 339.96 431.79 339.96" fill="#313166"
                opacity="0.5" style="mix-blend-mode:multiply" />
            <polygon points="471.37 327.91 471.38 327.91 471.37 327.91 471.37 327.91" fill="#313166"
                opacity="0.5" style="mix-blend-mode:multiply" />
            <rect y="595.28" width="901" height="653.7" fill="#bfccf7" />
            <polygon points="548.3 731.93 488.47 729.38 529.17 877.8 618.11 879.11 548.3 731.93"
                fill="#e1ecff" />
            <polygon
                points="704.8 1075.87 587.95 1088.44 618.18 1248.98 781.43 1248.98 704.8 1075.87"
                fill="#e1ecff" />
            <polygon points="430.35 446.81 411.56 447.82 422.31 487.24 446.61 485.01 430.35 446.81"
                fill="#e1ecff" />
        </g>
    </g>
</svg>